<svg xmlns="http://www.w3.org/2000/svg" width="900" height="600"><rect width="900" height="600" x="0" y="0" fill="#ffffff" id="backgorund"/><g id="viz"><clipPath id="serieClipPath"><rect x="-60" y="-15" width="900" height="600"/></clipPath><g transform="translate(0,0)"><g transform="translate(60,15)" clip-path="url(#serieClipPath)"><g id="axis"><g transform="translate(0,555)" fill="none" font-size="10" font-family="sans-serif" text-anchor="middle"><path class="domain" stroke="currentColor" d="M0,6V0H825V6"/><g class="tick" opacity="1" transform="translate(0,0)"><line stroke="currentColor" y2="6"/><text fill="currentColor" y="9" dy="0.71em">Mon 21</text></g><g class="tick" opacity="1" transform="translate(53.225806451612904,0)"><line stroke="currentColor" y2="6"/><text fill="currentColor" y="9" dy="0.71em">Wed 23</text></g><g class="tick" opacity="1" transform="translate(106.45161290322581,0)"><line stroke="currentColor" y2="6"/><text fill="currentColor" y="9" dy="0.71em">Fri 25</text></g><g class="tick" opacity="1" transform="translate(159.67741935483872,0)"><line stroke="currentColor" y2="6"/><text fill="currentColor" y="9" dy="0.71em">Mar 27</text></g><g class="tick" opacity="1" transform="translate(212.90322580645162,0)"><line stroke="currentColor" y2="6"/><text fill="currentColor" y="9" dy="0.71em">Tue 29</text></g><g class="tick" opacity="1" transform="translate(266.1290322580645,0)"><line stroke="currentColor" y2="6"/><text fill="currentColor" y="9" dy="0.71em">Thu 31</text></g><g class="tick" opacity="1" transform="translate(292.741935483871,0)"><line stroke="currentColor" y2="6"/><text fill="currentColor" y="9" dy="0.71em">April</text></g><g class="tick" opacity="1" transform="translate(345.9677419354839,0)"><line stroke="currentColor" y2="6"/><text fill="currentColor" y="9" dy="0.71em">Apr 03</text></g><g class="tick" opacity="1" transform="translate(399.19354838709677,0)"><line stroke="currentColor" y2="6"/><text fill="currentColor" y="9" dy="0.71em">Tue 05</text></g><g class="tick" opacity="1" transform="translate(452.41935483870964,0)"><line stroke="currentColor" y2="6"/><text fill="currentColor" y="9" dy="0.71em">Thu 07</text></g><g class="tick" opacity="1" transform="translate(505.64516129032256,0)"><line stroke="currentColor" y2="6"/><text fill="currentColor" y="9" dy="0.71em">Sat 09</text></g><g class="tick" opacity="1" transform="translate(558.8709677419355,0)"><line stroke="currentColor" y2="6"/><text fill="currentColor" y="9" dy="0.71em">Mon 11</text></g><g class="tick" opacity="1" transform="translate(612.0967741935484,0)"><line stroke="currentColor" y2="6"/><text fill="currentColor" y="9" dy="0.71em">Wed 13</text></g><g class="tick" opacity="1" transform="translate(665.3225806451612,0)"><line stroke="currentColor" y2="6"/><text fill="currentColor" y="9" dy="0.71em">Fri 15</text></g><g class="tick" opacity="1" transform="translate(718.5483870967741,0)"><line stroke="currentColor" y2="6"/><text fill="currentColor" y="9" dy="0.71em">Apr 17</text></g><g class="tick" opacity="1" transform="translate(771.7741935483871,0)"><line stroke="currentColor" y2="6"/><text fill="currentColor" y="9" dy="0.71em">Tue 19</text></g><g class="tick" opacity="1" transform="translate(825,0)"><line stroke="currentColor" y2="6"/><text fill="currentColor" y="9" dy="0.71em">Thu 21</text></g><text x="825" dy="-5" text-anchor="end" style="font-family: Arial, sans-serif; font-size: 12px; fill: rgb(123, 123, 123); font-weight: bold;">日期</text></g><g transform="translate(0,0)" fill="none" font-size="10" font-family="sans-serif" text-anchor="end"><path class="domain" stroke="currentColor" d="M0,555V0"/><g class="tick" opacity="1" transform="translate(0,555)"><line stroke="currentColor" x2="-6"/><text fill="currentColor" x="-9" dy="0.32em">555</text></g><g class="tick" opacity="1" transform="translate(0,493.3333333333333)"><line stroke="currentColor" x2="-6"/><text fill="currentColor" x="-9" dy="0.32em">560</text></g><g class="tick" opacity="1" transform="translate(0,431.6666666666667)"><line stroke="currentColor" x2="-6"/><text fill="currentColor" x="-9" dy="0.32em">565</text></g><g class="tick" opacity="1" transform="translate(0,370.00000000000006)"><line stroke="currentColor" x2="-6"/><text fill="currentColor" x="-9" dy="0.32em">570</text></g><g class="tick" opacity="1" transform="translate(0,308.33333333333337)"><line stroke="currentColor" x2="-6"/><text fill="currentColor" x="-9" dy="0.32em">575</text></g><g class="tick" opacity="1" transform="translate(0,246.66666666666666)"><line stroke="currentColor" x2="-6"/><text fill="currentColor" x="-9" dy="0.32em">580</text></g><g class="tick" opacity="1" transform="translate(0,185.00000000000003)"><line stroke="currentColor" x2="-6"/><text fill="currentColor" x="-9" dy="0.32em">585</text></g><g class="tick" opacity="1" transform="translate(0,123.33333333333333)"><line stroke="currentColor" x2="-6"/><text fill="currentColor" x="-9" dy="0.32em">590</text></g><g class="tick" opacity="1" transform="translate(0,61.66666666666669)"><line stroke="currentColor" x2="-6"/><text fill="currentColor" x="-9" dy="0.32em">595</text></g><g class="tick" opacity="1" transform="translate(0,0)"><line stroke="currentColor" x2="-6"/><text fill="currentColor" x="-9" dy="0.32em">600</text></g><text x="4" text-anchor="start" dominant-baseline="hanging" style="font-family: Arial, sans-serif; font-size: 12px; fill: rgb(123, 123, 123); font-weight: bold;">收盤</text></g></g><g id="viz"><g><path d="M0,172.66666666666666C13.306451612903226,172.66666666666666,13.306451612903226,209.66666666666666,26.612903225806452,209.66666666666666C39.91935483870968,209.66666666666666,39.91935483870968,123.33333333333333,53.225806451612904,123.33333333333333C66.53225806451613,123.33333333333333,66.53225806451613,110.99999999999997,79.83870967741936,110.99999999999997C93.14516129032259,110.99999999999997,93.14516129032259,24.66666666666664,106.45161290322581,24.66666666666664C146.3709677419355,24.66666666666664,146.3709677419355,197.33333333333331,186.29032258064515,197.33333333333331C199.59677419354838,197.33333333333331,199.59677419354838,135.66666666666669,212.90322580645162,135.66666666666669C226.20967741935485,135.66666666666669,226.20967741935485,0,239.51612903225808,0C252.82258064516128,0,252.82258064516128,36.99999999999999,266.1290322580645,36.99999999999999C279.43548387096774,36.99999999999999,279.43548387096774,135.66666666666669,292.741935483871,135.66666666666669C359.2741935483871,135.66666666666669,359.2741935483871,271.33333333333337,425.80645161290323,271.33333333333337C439.11290322580646,271.33333333333337,439.11290322580646,419.3333333333333,452.41935483870964,419.3333333333333C465.7258064516129,419.3333333333333,465.7258064516129,407.00000000000006,479.03225806451616,407.00000000000006C518.9516129032259,407.00000000000006,518.9516129032259,518,558.8709677419355,518C572.1774193548388,518,572.1774193548388,530.3333333333334,585.483870967742,530.3333333333334C598.7903225806451,530.3333333333334,598.7903225806451,333,612.0967741935484,333C625.4032258064517,333,625.4032258064517,333,638.7096774193549,333C652.016129032258,333,652.016129032258,468.6666666666667,665.3225806451612,468.6666666666667C705.241935483871,468.6666666666667,705.241935483871,481,745.1612903225806,481C758.4677419354839,481,758.4677419354839,431.6666666666667,771.7741935483871,431.6666666666667C785.0806451612902,431.6666666666667,785.0806451612902,370.00000000000006,798.3870967741935,370.00000000000006C811.6935483870968,370.00000000000006,811.6935483870968,431.6666666666667,825,431.6666666666667" stroke="#1f77b4" fill="none"/><text font-family="sans-serif" font-size="10" class="labels" x="239.51612903225808" y="0" dx="0" dy="-4" text-anchor="middle"/></g></g></g><text y="4" x="4" style="font-family: Arial, sans-serif; font-size: 12px; fill: black; font-weight: bold; dominant-baseline: hanging;"/></g><g id="grid"><rect x="0" y="0" width="900" height="600" fill="none" stroke="#ccc"/></g></g></svg>